Patient4_TMGait_0pt6_02_left_11_EMG.mot
version=1
nRows=34
nColumns=33
inDegrees=no
endheader
time	1LAddLong	2LGlutMax	3LGlutMed	4LIliopsoas	5LSemiMemb	6LBicFemLong	7LRecFem	8LVastMed	9LVastLat	10LGasMed	11LTibAnt	12lTibPost	13LPeroneusLong	14LSol	15LExtDigLong	16LFlexDigLong	17RAddLong	18RGlutMax	19RGlutMed	20RIliopsoas	21RSemiMemb	22RBicFemLong	23RRecFem	24RVastMed	25RVastLat	26RGasMed	27RTibAnt	28RTibPost	29RPeroneusLong	30RSol	31RExtDigLong	32RFlexDigLong
13.977	-0.024109	0.30868	0.067596	0.002441	-0.027161	0.20737	0.5629	-0.00412	-0.3627	-0.045319	-0.095673	-0.015106	-0.42938	-0.42541	-0.15762	0.007172	0.08667	-0.038452	-0.12299	-0.089569	-0.00824	0.063934	0.62088	-0.12238	0.003815	0.027924	0.024261	-0.03952	0.36545	1.7155	-0.004425	-0.011597
13.978	-0.033264	0.28107	0.10696	-0.004883	-0.017853	0.003662	0.54611	0.023499	-0.34637	-0.014496	-0.1535	0.008087	-0.27588	-0.42419	-0.12482	0.00061	0.11322	-0.09201	-0.014343	-0.032806	0.007935	0.10025	0.67444	-0.10544	0.001984	0.035095	0.041504	-0.031281	0.30548	1.0028	-0.000763	-0.01297
13.979	-0.021973	0.25284	0.082703	0.002594	-0.02182	-0.51117	0.5043	0.036163	-0.32776	0.010223	-0.13626	0.00885	-0.058594	-0.41168	0.019226	-0.008392	0.11719	-0.073853	0.011902	0.053101	0.006409	0.072174	0.62241	-0.065308	0.021515	0.02533	0.086212	-0.010529	0.20874	-0.041962	-0.003357	-0.008545
13.98	-0.01358	0.27527	0.32105	-0.021667	-0.052948	-0.68542	0.43701	0.029144	-0.23895	0.001373	-0.014801	0.026398	-0.21469	-0.36728	0.49591	0.016937	0.073242	-0.068512	-0.028076	0.01709	-0.007019	0.112	0.61768	-0.087738	0.023956	0.016632	0.047607	0.00946	0.29083	-0.84778	0.003662	-0.00946
13.981	0.013428	0.25146	0.21515	-0.00351	-0.047913	-0.33081	0.3067	0.02243	-0.11993	-0.077209	0.070801	0.042267	0.045624	-0.12512	0.27924	0.024719	0.027771	-0.061798	-0.11414	-0.054016	0.010529	0.11414	0.58914	-0.070953	0.026245	0.018463	0.065613	-0.004578	0.21027	-1.0139	0.000458	-0.011749
13.982	0.013275	0.22064	0.01236	-0.004578	-0.11032	0.005188	0.24841	0.029755	-0.031128	-0.12543	0.14648	0.052338	-0.054169	0.13214	0.2861	0.032196	0.049438	-0.11566	-0.19608	-0.066223	0.007935	0.12024	0.56137	-0.022125	0.046387	0.022583	0.072327	-0.000305	-0.10727	-0.78751	-0.000305	-0.012054
13.983	0	0.18677	-0.003967	0.020752	-0.15701	0.080261	0.12314	0.039368	0.086975	-0.11841	0.40146	0.067902	-0.36652	0.17944	-0.040588	0.030518	0.075531	-0.13428	-0.11246	-0.044403	0.008545	0.090942	0.51468	0.016327	0.039673	0.03067	0.092163	-0.044861	-0.22461	-0.72418	-0.001678	-0.007324
13.984	0.006866	0.21591	0.10269	-0.012665	-0.12985	0.10773	-0.035095	0.030212	0.16464	-0.14725	0.45731	0.078888	0.22354	0.30823	-0.29037	0.023956	0.068207	-0.14099	0.006256	0.019684	-0.006714	0.11307	0.60349	0.036163	0.019836	0.029297	0.049286	-0.13077	-0.52841	-0.57236	0.000153	-0.003204
13.985	0.008545	0.19043	0.10437	-0.001221	-0.075989	0.11795	-0.11002	0.003815	0.2533	-0.10162	0.39032	0.099945	0.23041	0.30395	-0.13519	0.009155	0.051575	-0.1207	-0.077209	0.020752	0.030975	0.18463	0.57587	0.040894	0.019379	0.042419	0.026093	-0.026093	-0.37659	-0.19302	0	-0.001373
13.986	0.034637	0.1741	0.15533	-0.040588	0.064545	0.05249	-0.15732	-0.000763	0.16556	-0.016632	0.18967	0.11688	0.054932	0.15747	-0.31097	0.007172	0.031891	-0.14603	-0.10864	0.019226	0.088806	0.27115	0.52094	0.17334	0.042725	0.01297	0.020447	0.11353	-0.22446	-0.032654	0	-0.013123
13.987	0.039673	0.15503	-0.028381	-0.027618	0.081024	0.098419	-0.11978	-0.013275	-0.1297	0.060883	-0.49759	0.14084	0.26169	-0.09903	-0.60455	0.020599	0.011749	-0.22736	-0.26993	-0.009003	0.11108	0.30868	0.55939	0.1329	0.026093	-0.015259	-0.018311	-0.20721	0.18143	-0.17502	-0.000916	-0.009613
13.988	0.027466	0.19028	-0.067139	-0.0177	0.030823	0.009766	-0.12619	-0.010223	-0.13596	0.042267	-0.49561	0.1535	1.0176	-0.14114	-0.51682	0.04364	0.026703	-0.20233	-0.20676	-0.056	0.12436	0.34805	0.6279	0.15076	0.028076	-0.026245	-0.047302	-0.098724	0.69366	0.068512	0.004425	-0.016327
13.989	0.010529	0.24643	-0.093994	-0.005341	0.056458	-0.15579	-0.11444	-0.012665	-0.038147	-0.040741	-0.37354	0.16174	0.98419	0.13031	-0.24918	0.036469	-0.043945	-0.15778	-0.21866	0.067139	0.11383	0.28641	0.78018	0.1474	0.016785	-0.068817	-0.000458	-0.16403	0.9108	0.76279	-0.001373	-0.014343
13.99	-0.015259	0.28534	-0.13519	0.001068	0.032043	-0.019836	-0.14297	0.002136	-0.054321	-0.007172	-0.16647	0.15243	-0.77576	0.21057	-0.066986	0.041046	-0.064392	-0.18356	-0.23468	0.081482	0.10315	0.23315	0.81879	0.11139	-0.00473	-0.044861	0.019836	-0.21469	0.71411	0.69015	-0.000305	-0.016479
13.991	-0.018768	0.29022	-0.19501	0.009766	-0.055542	-0.15442	-0.1976	-0.002594	-0.028381	0.065613	0.081635	0.15854	-1.1346	0.073853	0.1593	0.034027	-0.062714	-0.1889	-0.35034	0	0.08316	0.18601	0.73227	0.049286	-0.022888	-0.00824	0.028687	-0.022583	0.4863	-0.23209	-0.000305	-0.013885
13.992	0.010071	0.31357	-0.25436	0.002747	-0.079651	-0.29083	-0.22797	0.03891	-0.011292	0.088959	0.082703	0.15533	-0.29129	-0.023041	0.16144	0.022125	-0.053711	-0.20645	-0.39703	-0.19898	0.076447	0.15595	0.59113	-0.044708	-0.007477	-0.020599	0.042877	0.21271	0.08728	-0.62988	0.001221	-0.014496
13.993	0.053101	0.35706	-0.27756	-0.008392	-0.16174	-0.31738	-0.26825	0.035706	0.024719	0.090027	-0.015106	0.14771	0.36209	-0.031586	0.088501	0.031738	-0.058289	-0.31998	-0.3421	-0.40131	0.071564	0.12238	0.53604	-0.1442	-0.020752	-0.033875	0.056915	0.37872	-0.39719	0.091248	0.001221	-0.017548
13.994	0.091095	0.38681	-0.095062	-0.020752	-0.014191	-0.011139	-0.25681	0.037537	0.041809	0.085449	-0.069733	0.14816	-0.14053	0.039978	0.13825	0.023346	-0.053711	-0.34531	-0.21957	-0.32013	0.043488	0.089417	0.54657	-0.14038	-0.016327	-0.022888	0.081787	-0.50598	-0.57449	0.49759	-0.000458	-0.014343
13.995	0.090332	0.43732	-0.027008	0.000153	0.071106	0.36758	-0.26947	0.037842	0.006561	0.11719	-0.067444	0.12039	-0.39978	-0.12985	0.30289	0.021515	-0.056763	-0.39902	-0.24368	-0.10239	0.018921	0.070953	0.38666	-0.086823	-0.024261	0.016022	0.047302	0.007324	-0.39673	0.97778	-0.001373	-0.013428
13.996	0.068359	0.52368	-0.040283	0.019684	0.00412	0.42038	-0.3093	0.006866	0.14725	0.094757	-0.045013	0.11017	-0.037079	-0.2446	0.3157	0.010986	-0.051575	-0.46249	-0.26749	0.22446	0.000763	0.057678	0.39917	-0.072174	-0.021667	0.035095	-0.00061	0.42084	-0.065002	0.97427	-0.000305	-0.009003
13.997	0.035248	0.60226	-0.000916	-0.005493	-0.013733	0.29633	-0.29526	-0.009766	0.24506	0.086365	-0.022278	0.10773	0.055389	-0.72845	0.21454	0.012054	-0.06073	-0.50552	-0.32944	0.43106	-0.001831	0.062103	0.39352	-0.14343	-0.014343	0.032349	0.023956	0.18906	0.046387	0.61737	0.000458	-0.00946
13.998	0.003357	0.64285	0.053101	-0.025177	-0.000916	-0.024567	-0.39261	-0.012207	0.30868	0.10315	0.022125	0.087585	-0.11108	-0.81268	0.16464	0.008392	-0.043335	-0.50247	-0.354	0.31479	-0.001984	0.090485	0.29434	-0.092926	-0.027008	0.014191	0.069122	0.063477	0.22461	0.26977	-0.000916	0.000305
13.999	-0.004883	0.76935	0.028839	0.012054	-0.065308	-0.53757	-0.48233	0.001678	0.36652	0.074615	0.037079	0.080872	-0.009308	-0.33203	0.16388	0.011139	0.025635	-0.47714	-0.29572	0.037842	0.049286	0.19165	0.39215	-0.039063	-0.028381	-0.001068	0.11536	-0.034332	0.31265	-0.45349	-0.000916	-0.005188
14	-0.01236	0.7785	-0.087738	0.016022	-0.10346	-0.65659	-0.45944	0.003662	0.20294	0.044861	0.005188	0.067444	0.13184	0.03006	0.066681	0.016937	0.051422	-0.40787	-0.40771	-0.095978	0.069885	0.21072	0.54932	-0.033569	-0.045624	-0.003815	0.092468	-0.11398	0.35309	-0.81497	-0.005035	-0.019379
14.001	-0.010223	0.80032	-0.054169	-0.017548	0.011902	-0.5098	-0.21927	-0.015564	-0.027924	0.047302	-0.015259	0.050201	0.77835	0.15045	0.048676	0.014191	0.067749	-0.39902	-0.40161	-0.031128	0.073242	0.17456	0.83832	-0.003662	-0.026703	-0.015259	0.084839	-0.19455	0.112	-0.47638	-0.001068	-0.018616
14.002	-0.005951	0.79224	-0.098724	-0.002136	0.073547	-0.38391	-0.11841	-0.010071	-0.077209	0.0737	0.028381	0.048065	1.1055	0.3006	0.079041	0.012207	0.068817	-0.40344	-0.29068	-0.014496	0.04303	0.18692	0.97321	0.047913	-0.001984	-0.018616	0.031891	-0.24414	-0.10925	-0.39993	0	-0.010223
14.003	-0.001678	0.83725	0.025635	0.029144	0.050812	-0.11185	-0.098724	-0.007172	0.017548	0.11185	0.062714	0.035553	-0.071716	0.24307	-0.043182	0.020142	0.048523	-0.40604	-0.2446	-0.054321	0.002747	0.16556	0.92956	0.040894	0.011139	-0.004578	-0.027161	0.26764	-0.42893	-0.46478	-0.002136	-0.002136
14.004	-0.005646	0.81818	0.044556	0.036774	-0.002289	0.10849	-0.066071	0.00412	0.022736	0.07019	0.057526	0.022888	-0.16846	0.11322	-0.11368	0.018311	0.049286	-0.46265	-0.43076	0.075531	-0.03006	0.17593	0.87601	-0.095978	-0.01709	0.019989	0.001831	0.13641	-0.66284	-0.18631	-0.006256	-0.00061
14.005	-0.009613	0.73257	-0.032501	0.013733	-0.035095	0.14984	-0.13458	-0.00473	0.058899	-0.021515	0.042419	0.010223	-0.41077	0.31647	0.073395	0.019836	0.087891	-0.44662	-0.55405	0.14053	-0.047913	0.14832	0.74249	-0.18707	-0.002747	0.014496	0.034027	-0.002289	-0.56442	-0.271	0.002136	-0.003815
14.006	-0.00885	0.6282	0.041351	-0.024109	-0.042114	0.12436	-0.23254	0.000153	0.10757	0.006409	0.013428	0.002289	-0.65628	0.26047	-0.003815	0.007629	0.099945	-0.4361	-0.6575	0.21103	-0.045776	0.09964	0.80749	-0.21896	-0.003052	0.022736	0.067749	-0.028534	-0.28397	-0.18112	0.001373	-0.004578
14.007	0.008087	0.62775	0.19852	-0.038605	-0.050964	0.10773	-0.41138	-0.00946	0.085144	0.046234	-0.037231	-0.006866	-0.43167	0.07309	-0.16144	0.004425	0.063934	-0.38681	-0.6575	0.20294	-0.011444	0.10544	0.77118	-0.16876	-0.015259	0.019531	0.042267	-0.027161	0.032501	-0.13382	-0.001068	-0.00824
14.008	-0.041351	0.55313	0.22385	-0.001526	-0.070496	0.051117	-0.41122	-0.002747	0.081482	0.12711	-0.020447	-0.022736	-0.4007	-0.13184	-0.11444	-0.008545	0.037537	-0.41916	-0.6839	0.072327	0.032654	0.076599	0.57877	-0.22751	-0.027924	0.008087	0.015717	-0.030212	0.23102	-0.18829	-0.001678	-0.009308
14.009	0.068207	0.47348	-0.1088	0.027161	-0.027618	-0.10864	-0.36896	0.003662	0.046082	0.074158	-0.014038	-0.02533	0.011444	-0.21484	0.063629	-0.006866	0.023499	-0.44022	-0.79666	-0.12833	0.047913	0.048523	0.5928	-0.21149	-0.02655	0.000916	0.016479	-0.033112	0.41519	-0.33661	-0.001831	-0.017395
14.01	0.027008	0.48004	-0.17639	0.005646	0.040131	-0.45853	-0.36911	0.010681	0.096436	0.054932	0.024719	-0.037079	-0.003204	-0.65247	0.08316	-0.019836	-0.050964	-0.34958	-0.62805	-0.34485	0.07431	-0.006409	0.69778	-0.22461	-0.030518	-0.012207	0.034637	-0.0354	0.35477	-0.46036	-0.002289	-0.015717
